<svg xmlns="http://www.w3.org/2000/svg" xmlns:xlink="http://www.w3.org/1999/xlink" version="1.2" viewBox="0 0 283.46 283.46" baseProfile="tiny-ps">  <title>kairage oy</title>  <polygon points="55.83,137.19 51.16,137.23 57.05,135.56 70.72,119.41 60.76,119.41 35.87,148.81   42.66,119.41 34.03,119.41 23.9,163.26 33.59,163.26 48.31,145.88 52.87,163.26 53.11,163.26 59.79,152.28 " fill="#0B0B0B"/>  <path d="M98.12,152.94l-4.93-33.53H77.72l1.03,4.92l-17.18,28.21l-0.59,0.98l-0.59,0.98l-5.33,8.76h9.1  l0.16-0.26l4.78-7.86l-4.02-1.17l15.22-2.87l8.61,2.87l1.37,9.29h1.14l2.38-10.32H98.12z M75.07,145.3l10.11-16.6l2.44,16.6H75.07z" fill="#0B0B0B"/>  <polygon points="108.62,154.58 114.41,129.5 110.63,128.08 119.63,128.08 121.64,119.41 99.87,119.41   101.22,128.08 106.11,128.08 100.01,154.51 99.99,154.58 99.19,154.58 98.36,154.58 95.1,154.58 93.1,163.26 99.63,163.26   100.46,163.26 101.3,163.26 111.51,163.26 113.51,154.58 " fill="#0B0B0B"/>  <path d="M144.67,152.38c-0.53-1.96-1.07-3.52-1.7-4.9l-0.32-0.7l0.68-0.37c1.4-0.76,2.69-1.68,3.81-2.74  c3.62-3.42,5.1-7.27,5.71-9.9c0.6-2.59,0.89-6.38-1.09-9.71c-1.74-2.92-5.2-4.66-9.23-4.66h-19.05l-10.12,43.85h8.63l3.41-14.75  h4.84c1.19,0,2.09,0.55,3.11,1.91c0.99,1.32,1.93,3.51,2.65,6.16c0.6,2.21,1.04,4.63,1.39,6.68h1.97l5.72-9.39  c-0.12-0.49-0.24-0.99-0.37-1.48L144.67,152.38z M137.8,139.84h-10.42l2.34-10.15l-3.74-1.61h14.16c2.11,0,2.93,0.66,3.56,1.73  c0.64,1.06,0.8,2.73,0.43,4.34c-0.36,1.56-1.24,3.15-2.29,4.14C140.8,139.27,139.81,139.84,137.8,139.84z" fill="#0B0B0B"/>  <path d="M176.85,143.19c0.63-3.86,2.18-7.64,4.42-11.07l-1.87-12.72h-16.62l1.44,6.13l-17.42,28.61  l-0.62,1.02l-0.63,1.03l-4.3,7.07h9.1l4.57-7.51l-3.64-1.78h23.83l1.37,9.29h8.94c-6.59-3.76-9.98-11.41-8.56-20.06L176.85,143.19z   M161.29,145.3l10.11-16.6l2.44,16.6H161.29z" fill="#0B0B0B"/>  <path d="M219.54,137.73h-19.79l-2,8.67h11.16l-1.11,4.81l-0.2,0.18c-4.14,3.55-9.37,4.87-13.65,3.44  c-4.91-1.64-7.58-6.59-6.64-12.33c0.82-5.03,4.31-9.82,8.91-12.43c0.53-0.3-5.26-0.51-4.66-0.64c13.52-2.87,15.84-0.74,19.7,1.95  l7.78-6.17c-3.07-3.71-7.84-5.81-13.26-5.81c-0.07,0-0.13,0-0.2,0c-3.1,0.03-6.25,0.72-9.36,2.05c-5.34,2.29-9.99,6.27-13.24,11.04  c-0.23,0.34-0.46,0.69-0.68,1.04c-0.23,0.37-0.45,0.75-0.67,1.13c-1.57,2.78-2.67,5.77-3.17,8.79c-1.25,7.64,1.55,14.42,7.1,17.97  c0.3,0.19,0.6,0.37,0.91,0.54c0.29,0.16,0.59,0.31,0.9,0.45c0.56,0.26,1.15,0.5,1.75,0.7c8.05,2.68,18.3-0.54,25.51-8.03l1.15-1.2  l3.73-16.17L219.54,137.73z" fill="#0B0B0B"/>  <polygon points="255.25,128.08 257.25,119.41 220.43,119.41 224.27,125.17 215.48,163.26 247.13,163.26   249.13,154.58 226.11,154.58 227.84,147.12 223.44,145.67 249.62,145.67 251.62,137 230.17,137 232.23,128.08 " fill="#0B0B0B"/>  <rect x="69.85" y="155.97" width="18.11" height="0.43" fill="#0B0B0B"/>  <rect x="72.25" y="154.7" width="5.03" height="0.43" fill="#0B0B0B"/>  <rect x="80.87" y="154.7" width="5.03" height="0.43" fill="#0B0B0B"/>  <rect x="68.98" y="157.39" width="19.17" height="0.43" fill="#0B0B0B"/>  <rect x="68.13" y="158.8" width="20.22" height="0.43" fill="#0B0B0B"/>  <rect x="67.26" y="160.22" width="21.31" height="0.43" fill="#0B0B0B"/>  <rect x="66.41" y="161.63" width="22.37" height="0.43" fill="#0B0B0B"/>  <g>    <path d="M260.76,119.44V120h-0.74v1.91h-0.56V120h-0.74v-0.56H260.76L260.76,119.44z" fill="#0B0B0B"/>    <path d="M261.54,119.44l0.67,1.37l0.67-1.37h0.68v2.47H263v-1.44l-0.55,1.13h-0.48l-0.55-1.13v1.44h-0.56   v-2.47H261.54L261.54,119.44z" fill="#0B0B0B"/>  </g></svg>